<svg id="Layer_1" data-name="Layer 1" xmlns="http://www.w3.org/2000/svg" viewBox="0 0 20.38 36.04"><defs><style>.cls-1{fill:#c3c;}.cls-2{fill:#0071bc;}.cls-3{fill:#c69c6d;}.cls-4{fill:#fcee21;}</style></defs><title>farmer</title><path class="cls-1" d="M13.63,22.79c0,2.75-1.58,5-3.5,5s-3.5-2.25-3.5-5v-4c0-2.75,1.57-5,3.5-5s3.5,2.25,3.5,5Z"/><path class="cls-2" d="M15.94,32a.92.92,0,0,1-.64,1.2l-1.51.41a1.08,1.08,0,0,1-1.29-.68l-2.15-6.28A.94.94,0,0,1,11,25.42L12.5,25a1.1,1.1,0,0,1,1.29.69Z"/><path class="cls-2" d="M9.72,33.74a1,1,0,0,1-1.1.91L7,34.52a1,1,0,0,1-.89-1.08l.7-6.52A1,1,0,0,1,7.94,26l1.59.14a1,1,0,0,1,.89,1.08Z"/><path class="cls-2" d="M7.82,27.8a1,1,0,0,1-1-1l0-1.13a1,1,0,0,1,1-1l4.86.09a1,1,0,0,1,1,1l0,1.13a1,1,0,0,1-1,1Z"/><path class="cls-1" d="M16.72,19.85c.7.85.82,1.92.26,2.38s-1.59.15-2.29-.7l-3-3.57c-.7-.85-.82-1.92-.26-2.38s1.59-.15,2.29.7Z"/><path class="cls-1" d="M6,21.56c-.64.9-1.64,1.29-2.23.87s-.55-1.49.08-2.39l2.68-3.79c.64-.9,1.64-1.29,2.23-.87s.55,1.49-.08,2.39Z"/><path d="M7.78,33c1.1,0,2,.59,2,1.32s-.9,1.31-2,1.31H7c-1.1,0-2-.59-2-1.31S5.94,33,7,33Z"/><path d="M15.5,32.36c1.1,0,2,.6,2,1.32s-.91,1.32-2,1.31h-.74c-1.1,0-2-.59-2-1.32s.9-1.31,2-1.31Z"/><circle class="cls-3" cx="10.13" cy="9.79" r="5"/><path class="cls-4" d="M19.63,6.79c0,1.1-4.25,2-9.5,2s-9.5-.9-9.5-2c0-.6,1.28-1.15,3.3-1.51a2.63,2.63,0,0,1-.05-.49c0-2.21,2.8-4,6.25-4s6.25,1.79,6.25,4a2.63,2.63,0,0,1-.05.49C18.35,5.64,19.63,6.19,19.63,6.79Z"/><circle cx="7.63" cy="10.29" r="0.5"/><circle cx="12.63" cy="10.29" r="0.5"/><ellipse class="cls-3" cx="10.14" cy="14.54" rx="2.02" ry="1.03"/><path d="M11.34,12.88c.43-.34.55-.23.25.23a1.69,1.69,0,0,1-1.41.68,1.7,1.7,0,0,1-1.42-.68c-.29-.46-.18-.57.26-.23a2,2,0,0,0,1.16.31A2,2,0,0,0,11.34,12.88Z"/><path d="M16.63,5.59c0,.66-2.91,1.2-6.5,1.2s-6.5-.54-6.5-1.2q0-.15.21-.3c.73.52,3.27.9,6.29.9s5.56-.38,6.29-.9Q16.63,5.44,16.63,5.59Z"/><circle class="cls-3" cx="4.23" cy="21.73" r="1.49"/><circle class="cls-3" cx="16.76" cy="21.57" r="1.49"/></svg>