<svg id="Layer_1" data-name="Layer 1" xmlns="http://www.w3.org/2000/svg" viewBox="0 0 30 30"><defs><style>.cls-1{fill:#d4b8b0;stroke:#c3c;stroke-miterlimit:10;stroke-width:5px;}.cls-2{fill:#090;}.cls-3{fill:#630;}</style></defs><title>sapling</title><rect class="cls-1" width="30" height="30"/><path class="cls-2" d="M14.53,9.78s-.32-3.25,6.91-3.25S14.53,9.78,14.53,9.78Z"/><path class="cls-2" d="M14.47,9.78A6.51,6.51,0,0,0,8.82,6.21C1.59,6.21,14.47,9.78,14.47,9.78Z"/><path class="cls-2" d="M14.44,9.77a62.9,62.9,0,0,1-.59,11.7A15.24,15.24,0,0,0,14.44,9.77Z"/><path class="cls-3" d="M23.44,21.15c0,1.46-2.83,2.64-6.31,2.64A11.9,11.9,0,0,1,12.66,23a5,5,0,0,1-2.32.54c-2.12,0-3.84-1.18-3.84-2.64s1.72-2.63,3.84-2.63h.22a3.88,3.88,0,0,1,3.69-1.92c1.89,0,3.47.94,3.78,2.18C21.09,18.73,23.44,19.82,23.44,21.15Z"/></svg>